<svg width="128" height="128" xmlns="http://www.w3.org/2000/svg">
  <defs>
    <linearGradient id="gamepadGrad" x1="0%" y1="0%" x2="100%" y2="100%">
      <stop offset="0%" style="stop-color:#E60606;stop-opacity:1" />
      <stop offset="100%" style="stop-color:#FF0000;stop-opacity:1" />
    </linearGradient>
  </defs>
  <g transform="translate(64, 64)">
    <!-- Геймпад -->
    <path d="M -40 -15 Q -50 -15 -50 0 L -50 15 Q -50 25 -40 25 L -10 25 Q 0 25 0 15 L 0 -15 Q 0 -25 -10 -25 L -40 -25 Q -50 -25 -50 -15 Z" fill="url(#gamepadGrad)" opacity="0.8"/>
    <path d="M 40 -15 Q 50 -15 50 0 L 50 15 Q 50 25 40 25 L 10 25 Q 0 25 0 15 L 0 -15 Q 0 -25 10 -25 L 40 -25 Q 50 -25 50 -15 Z" fill="url(#gamepadGrad)" opacity="0.8"/>

    <!-- Кнопки -->
    <circle cx="-35" cy="0" r="5" fill="#FFFFFF"/>
    <circle cx="35" cy="0" r="5" fill="#FFFFFF"/>
    <circle cx="25" cy="-10" r="4" fill="#FFFFFF"/>
    <circle cx="25" cy="10" r="4" fill="#FFFFFF"/>

    <!-- Крестовина -->
    <rect x="-40" y="-3" width="15" height="6" fill="#FFFFFF"/>
    <rect x="-35" y="-8" width="6" height="16" fill="#FFFFFF"/>
  </g>
</svg>